# xmcd
#
# Track frame offsets: 
#        150
#        26107
#        50382
#        73190
#        97505
#        121086
#        145630
#        166546
#        195714
#        219756
#        243042
#        272234
#
# Disc length: 3924 seconds
#
# Revision: 0
# Processed by: cddbd v1.5.2PL0 Copyright (c) Steve Scherf et al.
# Submitted via: ExactAudioCopy v1.0b3
#
DISCID=950f520c
DTITLE=Quang Linh - Ngo Dau Trang Da Qua Doi
DYEAR=2006
DGENRE=
TTITLE0=Que huong tuoi tho toi
TTITLE1=Que nha
TTITLE2=Cho chieu
TTITLE3=Lang toi
TTITLE4=Dem trang thu
TTITLE5=Doi loi voi Hue
TTITLE6=Ao lua Ha Dong
TTITLE7=Quan coc
TTITLE8=Ngo dau trang da qua doi
TTITLE9=Cho tinh thoi mong manh
TTITLE10=Cong Me di choi
TTITLE11=Chot nhu nam muoi tam
EXTD=
EXTT0=
EXTT1=
EXTT2=
EXTT3=
EXTT4=
EXTT5=
EXTT6=
EXTT7=
EXTT8=
EXTT9=
EXTT10=
EXTT11=
PLAYORDER=
